<?xml version="1.0" standalone="no"?>
<!DOCTYPE svg PUBLIC "-//W3C//DTD SVG 1.1//EN" "http://www.w3.org/Graphics/SVG/1.1/DTD/svg11.dtd" >
<svg xmlns="http://www.w3.org/2000/svg" xmlns:xlink="http://www.w3.org/1999/xlink" version="1.1" viewBox="0 0 1253 2048">
  <g transform="matrix(1 0 0 -1 0 1434)">
   <path fill="currentColor"
d="M1034 -35q-83 0 -135 45q-53 47 -53 129q0 78 40 78q12 0 49 -57q46 -56 83 -56q49 0 65 41q11 27 11 84q0 35 -6.5 72.5t-18.5 75.5q-30 102 -84 102q-38 0 -90 -12q-58 -236 -270 -358q-189 -109 -449 -109h-246v139h86h134q109 0 196 14t152 40q88 35 146 97t89 150
q-88 -20 -169.5 -29.5t-160.5 -9.5q-113 0 -245 45q-166 58 -166 150q0 113 84 113q22 0 59 -18.5t113 -53.5q149 -70 231 -70t246 33q82 17 143 26t103 9q150 0 223 -137q59 -112 59 -273q0 -260 -219 -260z" />
  </g>

</svg>
