<?xml version="1.0" standalone="no"?>
<!DOCTYPE svg PUBLIC "-//W3C//DTD SVG 1.1//EN" "http://www.w3.org/Graphics/SVG/1.1/DTD/svg11.dtd" >
<svg xmlns="http://www.w3.org/2000/svg" xmlns:xlink="http://www.w3.org/1999/xlink" version="1.1" viewBox="0 0 698 2048">
  <g transform="matrix(1 0 0 -1 0 1434)">
   <path fill="currentColor"
d="M817 -631q-13 0 -141 96q-88 65 -167.5 134.5t-152.5 144.5q-213 219 -213 340q0 129 121 129q14 0 42.5 -9t70.5 -28q88 -37 129 -37h192v-139h-184q-36 0 -102 29q-29 3 -29 -29q0 -76 121 -227q38 -48 93.5 -110.5t129.5 -137.5q57 -60 88 -89.5t33 -47.5
q0 -19 -31 -19z" />
  </g>

</svg>
