<svg version="1" xmlns="http://www.w3.org/2000/svg" width="933.333" height="933.333" viewBox="0 0 700.000000 700.000000"><path d="M256.5 138c-34.7 6.2-56.9 24.6-58.8 49.1-1.5 18.1 7.7 34.9 25.3 46.2 12.1 7.8 17.7 10 44.3 17.3 38.1 10.4 59.2 20.2 69.7 32.1 5.9 6.7 16.8 30.5 19.5 42.6.2 1.2 1.1 4.9 2 8.2.8 3.3 1.7 6.9 1.9 8 1.8 9.1 3.8 19.6 4.2 22.5.2 1.9.6 4.2.9 5 .2.8.7 3.5 1 6 .3 2.5.8 6.1 1.1 8 .7 5.1 1.3 9.8 1.9 15.5.3 2.7.7 6.6 1 8.5.3 1.9.7 5.7 1 8.5.3 2.7.8 6.8 1 9 .3 2.2 1 8 1.5 13 .6 4.9 1.3 10.6 1.5 12.5.3 1.9 1.2 8.7 2 15 .9 6.3 1.7 12.8 1.9 14.5 4.7 39.8 17 64.5 38 76.4 15.5 8.8 41.4 10.3 55.2 3.3 18.8-9.6 28.8-33.3 29.8-70.6.2-7.9-.2-13.4-1.9-24.5-1.9-12.4-11.1-43.8-19.3-65.6-4.1-11-12.1-31.6-13.2-34-4.3-9.5-21.2-57.5-23.6-67-.9-3.6-.9-3.6-2.8-11-3.7-13.9-5-30.3-3-37.4.4-1.4.8-3.1.9-3.6.4-1.7 3.6-6.5 11.3-16.7 3.9-5.3 7.2-10.2 7.2-10.8 0-1.4-5.8-22.1-11.2-40-2.2-7.4-6.3-19.2-9-26.1-4.6-11.9-5.1-12.7-7.6-12.6-3.3 0-55.6-1.2-74.2-1.8-7.4-.3-30.6-.6-51.5-.9-33.4-.4-39.2-.2-48 1.4zM252.8 440.1c-15.6 2.4-30.1 12.4-38.2 26.2-7.4 12.6-9.4 30.3-4.8 43.1 10.1 28.2 39.6 43 67.4 34 5.2-1.7 16.2-8.4 19.3-11.9 5.9-6.4 9-10.5 11.5-15.5 13.6-27.2 0-61.6-29-73-8.4-3.3-17.3-4.3-26.2-2.9z"/></svg>