<?xml version="1.0" standalone="no"?>
<!DOCTYPE svg PUBLIC "-//W3C//DTD SVG 1.1//EN" "http://www.w3.org/Graphics/SVG/1.1/DTD/svg11.dtd" >
<svg xmlns="http://www.w3.org/2000/svg" xmlns:xlink="http://www.w3.org/1999/xlink" version="1.1" viewBox="0 0 889 2048">
  <g transform="matrix(1 0 0 -1 0 1434)">
   <path fill="currentColor"
d="M862 2q-5 -2 -18 -2h-914v139h744q-216 307 -318 307q-28 0 -86 -24q-29 -11 -50.5 -17t-35.5 -6q-18 0 -34.5 6t-29 17t-20.5 26t-8 33q0 72 72 107q54 28 135 28q192 0 483 -387q54 -72 81.5 -118.5t27.5 -69.5q0 -33 -29 -39z" />
  </g>

</svg>
