<?xml version="1.0" standalone="no"?>
<!DOCTYPE svg PUBLIC "-//W3C//DTD SVG 1.1//EN" "http://www.w3.org/Graphics/SVG/1.1/DTD/svg11.dtd" >
<svg xmlns="http://www.w3.org/2000/svg" xmlns:xlink="http://www.w3.org/1999/xlink" version="1.1" viewBox="0 0 1272 2048">
  <g transform="matrix(1 0 0 -1 0 1638)">
   <path fill="currentColor"
d="M1272 0h-102q-191 0 -418 233q-204 210 -341 496q0 -347 -81 -552q91 -12 177 -40q139 -43 139 -94q0 -21 -61 -139q-156 102 -273 102q-61 0 -204 -64q130 209 168 311q55 146 55 359q0 41 -20 129q-20 83 -18 115q3 69 142 147q81 -192 148 -324.5t121 -208.5
q223 -318 523 -318h45v-152z" />
  </g>

</svg>
