<svg version="1" xmlns="http://www.w3.org/2000/svg" width="933.333" height="933.333" viewBox="0 0 700.000000 700.000000"><path d="M615.7 118.6c-17.4 4.5-38.6 20.7-61.8 47.4-4.5 5.2-8.5 9.7-8.8 10-.3.3-3.3 3.6-6.6 7.5-12.1 14-35.2 39.3-45 49.1-23.3 23.4-61.6 42.3-111.3 54.8-5.3 1.4-11.3 2.8-13.2 3.1-1.9.3-8 1.5-13.5 2.5-14.5 2.7-30.6 4.9-48 6.6-3.8.3-8.3.8-10 .9-11.9 1.2-34.5 2-61 2-27.1 0-39.3-.4-57.5-2-4.9-.4-13.4-1-30-2.2-5.8-.4-21.1-.7-34-.7-22.7 0-23.8.1-32.2 2.7-13.9 4.3-23.1 9.9-33.8 20.6C35.9 334 31.2 346.7 31.5 368c.3 15.2 1.2 24.7 4.5 44 2 11.9 2.3 13.1 4 21.5.6 2.7 1.2 5.9 1.4 7 .2 1.1 1.4 6 2.6 11 1.2 4.9 2.3 9.7 2.5 10.7 1.6 7.6 9.6 36.3 13.6 49.3 14 44.6 28.9 67 43.3 65.1 2.2-.3 4.2-.5 4.3-.5.9-.3 4.8-5.3 6.3-8.2 4.5-8.7 4.8-13.3 4.4-83.9-.4-72.3-.2-75.8 5.2-87.5 3.8-8.4 11.8-15.2 19.9-16.9 1.7-.3 4.1-.9 5.5-1.2 5.1-1 24-1.2 28.2-.2 2.3.5 5.4 1.1 6.8 1.3 9.4 1.3 32.5 11.5 50 22.3 36.2 22.2 59.4 44 90 84.7 19.1 25.3 33.9 42 52.4 59 13.1 12.2 31.6 24.1 45.6 29.7 13.7 5.4 31.7 7.4 43 4.7 2.5-.6 5.6-1.3 7-1.5 1.4-.3 5.4-1.8 9.1-3.3 22.7-9.6 33.5-25.5 32.4-47.9-.7-14-6-26.4-14.1-33-3.9-3.2-14.6-7.2-27.4-10.2-10.7-2.5-27.3-8-33.9-11.3-4.3-2.2-13.7-8.7-17.7-12.2-.7-.6-2.4-1.9-4-3-1.5-1.1-3.9-2.9-5.3-4.1-11.2-9.2-102.4-76.5-109.6-80.9-1.2-.7.6-1 6.7-1.1 9-.1 34.8-1.3 41.3-1.9 2.2-.2 7.2-.6 11-1 13.1-1.2 13.4-1.2 35-4.1 2.2-.3 8.5-1.4 14-2.4 5.5-1.1 11.1-2.1 12.5-2.4 14.6-2.6 47.1-11.7 62-17.3 21.6-8.2 46.9-20.5 60.3-29.4 3.2-2.2 6-3.9 6.3-3.9.4 0 30.6-21.1 31.4-21.9.3-.4 3.2-2.6 6.5-5 21.4-15.8 48.7-41.6 60.2-56.9 15.8-20.9 22.3-37.9 21.7-56.8-1-33.3-15.1-50.1-42.9-50.8-3.8-.2-9.2.3-11.8 1z"/></svg>